<svg id="svg" xmlns="http://www.w3.org/2000/svg" xmlns:xlink="http://www.w3.org/1999/xlink" viewBox="0, 0, 400,400"><g id="svgg"><path id="path0" d="M104.827 84.158 C 96.474 89.252,97.041 103.055,105.787 107.510 C 110.393 109.857,118.853 109.997,235.475 109.653 L 360.235 109.286 364.403 104.620 C 370.184 98.150,369.974 92.545,363.714 86.286 L 358.857 81.429 234.071 81.434 C 113.919 81.439,109.120 81.540,104.827 84.158 M39.251 191.994 C 30.864 195.649,29.094 205.914,35.597 213.192 L 39.766 217.857 200.000 217.857 L 360.234 217.857 364.403 213.192 C 371.115 205.680,368.793 194.708,359.830 191.583 C 352.662 189.085,45.024 189.479,39.251 191.994 M160.258 303.296 C 155.823 308.017,156.009 316.931,160.646 321.934 L 164.149 325.714 257.854 325.714 L 351.558 325.714 355.007 322.266 C 360.092 317.181,360.968 311.860,357.720 305.800 L 354.995 300.714 259.184 300.347 L 163.374 299.980 160.258 303.296 " stroke="none" fill-rule="evenodd"></path></g></svg>