<svg id="svg" xmlns="http://www.w3.org/2000/svg" xmlns:xlink="http://www.w3.org/1999/xlink" viewBox="0, 0, 400,400"><g id="svgg"><path id="path0" d="M36.286 86.286 C 30.026 92.545,29.816 98.150,35.597 104.620 L 39.766 109.286 200.000 109.286 L 360.234 109.286 364.403 104.620 C 370.184 98.150,369.974 92.545,363.714 86.286 L 358.857 81.429 200.000 81.429 L 41.143 81.429 36.286 86.286 M39.251 191.994 C 30.864 195.649,29.094 205.914,35.597 213.192 L 39.766 217.857 200.000 217.857 L 360.234 217.857 364.403 213.192 C 371.115 205.680,368.793 194.708,359.830 191.583 C 352.662 189.085,45.024 189.479,39.251 191.994 M34.383 304.149 C 30.104 310.159,30.548 316.482,35.604 321.538 L 39.780 325.714 199.572 325.714 C 374.746 325.714,363.353 326.291,367.108 317.227 C 369.240 312.079,368.324 307.521,364.285 303.186 L 361.317 300.000 199.327 300.000 L 37.337 300.000 34.383 304.149 " stroke="none" fill-rule="evenodd"></path></g></svg>