<svg id="svg" xmlns="http://www.w3.org/2000/svg" xmlns:xlink="http://www.w3.org/1999/xlink" viewBox="0, 0, 400,400"><g id="svgg"><path id="path0" d="M73.367 82.833 C 63.310 86.931,62.970 102.744,72.829 107.842 C 78.899 110.982,318.863 111.110,326.359 107.978 C 334.974 104.379,337.197 93.544,330.838 86.151 L 327.391 82.143 201.910 81.864 C 132.895 81.711,75.051 82.147,73.367 82.833 M39.251 191.994 C 30.864 195.649,29.094 205.914,35.597 213.192 L 39.766 217.857 200.000 217.857 L 360.234 217.857 364.403 213.192 C 371.115 205.680,368.793 194.708,359.830 191.583 C 352.662 189.085,45.024 189.479,39.251 191.994 M102.556 302.500 C 97.481 308.340,98.514 321.197,104.306 324.297 C 108.639 326.616,292.936 326.106,296.015 323.767 C 301.687 319.457,302.464 308.154,297.477 302.500 C 294.066 298.634,105.916 298.634,102.556 302.500 " stroke="none" fill-rule="evenodd"></path></g></svg>