<svg id="svg" xmlns="http://www.w3.org/2000/svg" xmlns:xlink="http://www.w3.org/1999/xlink" viewBox="0, 0, 400,400"><g id="svgg"><path id="path0" d="M36.286 86.286 C 30.026 92.545,29.816 98.150,35.597 104.620 L 39.765 109.286 164.525 109.661 C 283.738 110.019,289.505 109.918,294.219 107.384 C 303.039 102.643,303.502 89.540,295.033 84.306 C 290.459 81.479,288.182 81.429,165.760 81.429 L 41.143 81.429 36.286 86.286 M39.251 191.994 C 30.864 195.649,29.094 205.914,35.597 213.192 L 39.766 217.857 200.000 217.857 L 360.234 217.857 364.403 213.192 C 371.115 205.680,368.793 194.708,359.830 191.583 C 352.662 189.085,45.024 189.479,39.251 191.994 M42.841 304.643 C 38.735 311.379,40.770 322.631,46.492 324.827 C 47.764 325.315,90.739 325.714,141.992 325.714 L 235.180 325.714 239.018 321.708 C 243.800 316.717,244.168 309.194,239.896 303.764 L 236.935 300.000 141.304 300.000 L 45.672 300.000 42.841 304.643 " stroke="none" fill-rule="evenodd"></path></g></svg>