<svg id="svg" xmlns="http://www.w3.org/2000/svg" xmlns:xlink="http://www.w3.org/1999/xlink" viewBox="0, 0, 400,400" version="1.1"><g id="svgg"><path id="path0" d="M116.429 60.536 C 66.417 74.568,54.040 85.954,33.936 136.429 C 28.597 149.831,18.571 183.071,18.571 187.368 C 18.571 188.798,17.299 194.636,15.745 200.341 C 9.591 222.923,5.584 272.514,9.327 279.766 C 15.813 292.332,45.148 318.571,52.710 318.571 C 53.632 318.571,55.810 319.503,57.550 320.642 C 62.399 323.816,85.223 331.008,96.580 332.942 C 115.376 336.141,128.703 330.329,140.512 313.781 L 147.038 304.635 153.162 305.766 C 178.665 310.476,221.616 310.491,246.738 305.798 L 252.892 304.648 260.019 314.448 C 272.725 331.917,284.263 336.425,305.705 332.300 C 344.187 324.895,377.485 304.330,390.062 280.201 C 394.293 272.084,390.632 225.687,383.421 196.021 C 378.132 174.264,373.913 158.839,371.225 151.429 C 369.657 147.107,367.101 140.036,365.546 135.714 C 357.939 114.581,348.598 97.385,339.994 88.675 C 320.583 69.022,261.056 49.801,250.939 59.918 C 250.108 60.749,248.302 61.429,246.925 61.429 C 242.335 61.429,230.855 74.564,227.934 83.158 L 225.235 91.099 199.760 91.099 C 181.723 91.099,174.282 90.626,174.272 89.478 C 174.245 86.384,167.523 73.414,163.945 69.554 C 153.304 58.072,136.545 54.891,116.429 60.536 M139.326 85.992 C 141.386 86.931,143.959 89.415,145.043 91.512 L 147.015 95.325 137.436 97.811 C 91.041 109.852,71.882 124.959,85.604 138.681 C 91.343 144.420,97.431 144.215,108.924 137.898 C 153.394 113.454,249.017 111.949,285.307 135.122 C 287.047 136.234,289.196 137.143,290.082 137.143 C 290.967 137.143,293.327 138.429,295.324 140.000 C 308.980 150.742,326.868 131.753,314.221 119.940 C 306.907 113.107,283.805 103.228,262.592 97.863 C 252.066 95.200,251.109 91.026,259.973 86.442 C 270.245 81.131,316.930 100.743,324.551 113.571 C 342.932 144.515,358.826 200.119,362.979 248.012 C 364.912 270.300,364.687 270.945,351.069 282.186 C 347.071 285.486,335.485 292.857,334.296 292.857 C 333.594 292.857,330.894 294.090,328.296 295.598 C 311.808 305.163,290.613 308.190,284.977 301.786 C 280.408 296.595,280.454 296.458,287.500 294.351 C 308.063 288.200,331.429 271.317,331.429 262.609 C 331.429 251.517,315.758 245.138,307.472 252.857 C 305.785 254.429,303.995 255.714,303.495 255.714 C 302.994 255.714,300.878 256.861,298.792 258.262 C 256.307 286.808,161.920 289.334,110.714 263.296 C 95.051 255.331,93.170 254.242,91.404 252.113 C 88.169 248.216,75.039 249.307,71.532 253.764 C 67.900 258.381,67.690 266.735,71.103 270.788 C 76.614 277.330,104.036 292.793,113.929 294.936 C 119.556 296.154,119.610 296.616,114.733 301.708 C 103.226 313.718,41.092 286.945,36.316 267.918 C 30.411 244.391,55.178 145.686,74.776 114.640 C 81.733 103.620,103.587 91.859,127.143 86.459 C 131.464 85.468,135.130 84.574,135.290 84.472 C 135.449 84.369,137.265 85.054,139.326 85.992 M134.833 184.781 C 105.088 198.952,113.535 250.000,145.624 250.000 C 183.905 250.000,186.384 186.784,148.288 182.061 C 143.605 181.480,140.404 182.127,134.833 184.781 M241.328 185.357 C 217.640 197.355,217.570 235.803,241.213 248.456 C 247.497 251.819,263.356 250.363,269.585 245.851 C 301.198 222.950,275.543 168.027,241.328 185.357 " stroke="none" fill-rule="evenodd"></path></g></svg>