<?xml version="1.0" encoding="UTF-8"?>
<!DOCTYPE svg PUBLIC "-//W3C//DTD SVG 1.1//EN" "http://www.w3.org/Graphics/SVG/1.1/DTD/svg11.dtd">
<svg xmlns="http://www.w3.org/2000/svg" version="1.1" width="474px" height="455px" style="shape-rendering:geometricPrecision; text-rendering:geometricPrecision; image-rendering:optimizeQuality; fill-rule:evenodd; clip-rule:evenodd" xmlns:xlink="http://www.w3.org/1999/xlink">
<g><path style="opacity:0.99" fill="#050505" d="M 203.5,123.5 C 203.373,112.148 203.706,100.815 204.5,89.5C 213.216,58.9459 232.55,38.1125 262.5,27C 325.361,10.9324 370.361,32.2658 397.5,91C 400.657,92.5781 403.991,93.5781 407.5,94C 419.167,94.3333 430.833,94.6667 442.5,95C 449.543,96.8889 454.043,101.389 456,108.5C 459.38,122.647 456.047,134.981 446,145.5C 428.795,162.683 407.962,170.183 383.5,168C 373.86,177.395 364.36,186.895 355,196.5C 351.889,200.722 350.889,205.389 352,210.5C 357.084,219.003 362.417,227.336 368,235.5C 387.743,273.896 390.743,313.563 377,354.5C 365.199,380.634 346.365,399.801 320.5,412C 300.001,421.278 278.501,425.445 256,424.5C 241.576,424.65 227.242,423.65 213,421.5C 170.122,430.368 129.289,424.868 90.5,405C 49.2406,381 30.074,344.834 33,296.5C 18.0278,273.313 12.3612,247.979 16,220.5C 18.0329,200.402 23.6996,181.402 33,163.5C 37.9163,155.98 44.4163,154.146 52.5,158C 80.5139,181.511 112.181,198.511 147.5,209C 153.432,210.65 159.432,211.983 165.5,213C 180.833,213.667 196.167,213.667 211.5,213C 224.243,211.547 234.743,206.047 243,196.5C 243.065,191.28 241.398,186.613 238,182.5C 223.44,168.257 212.44,151.59 205,132.5C 204.047,129.568 203.547,126.568 203.5,123.5 Z M 354.5,275.5 C 356.861,288.38 357.861,301.38 357.5,314.5C 354.28,350.546 335.946,375.379 302.5,389C 292.197,393.244 281.53,395.577 270.5,396C 303.061,371.311 312.894,339.478 300,300.5C 294.333,288.336 286.166,278.169 275.5,270C 261.33,266.506 254.83,272.006 256,286.5C 262.769,293.934 268.769,301.934 274,310.5C 282.437,334.595 276.937,354.761 257.5,371C 231.956,389.395 203.289,398.228 171.5,397.5C 139.838,398.427 111.838,388.927 87.5,369C 75.3442,357.368 67.0109,343.368 62.5,327C 70.9901,331.245 79.6567,335.578 88.5,340C 100.083,344.041 107.083,340.041 109.5,328C 108.684,323.367 106.35,319.701 102.5,317C 48.2441,291.631 30.9107,250.464 50.5,193.5C 68.083,204.124 86.083,213.958 104.5,223C 124.055,231.629 144.388,237.629 165.5,241C 198.481,247.426 229.148,241.426 257.5,223C 271.679,208.67 274.512,192.17 266,173.5C 258.711,163.876 251.045,154.542 243,145.5C 225.338,121.961 225.005,98.2948 242,74.5C 266.044,49.3645 294.544,42.5311 327.5,54C 364.461,72.0888 377.294,100.922 366,140.5C 357.862,152.984 348.195,164.317 337,174.5C 324.023,188.87 320.69,205.203 327,223.5C 332.169,232.508 337.836,241.175 344,249.5C 348.781,257.682 352.281,266.349 354.5,275.5 Z M 399.5,121.5 C 408.788,122.663 418.122,123.496 427.5,124C 419.303,133.432 408.97,138.598 396.5,139.5C 397.501,133.496 398.501,127.496 399.5,121.5 Z"/></g>
<g><path style="opacity:0.988" fill="#0b090a" d="M 325.5,83.5 C 342.962,84.4294 349.128,93.0961 344,109.5C 332.392,121.849 322.058,120.849 313,106.5C 310.996,100.514 312.162,95.1803 316.5,90.5C 319.257,87.7297 322.257,85.3963 325.5,83.5 Z"/></g>
<g><path style="opacity:0.213" fill="#322d30" d="M 204.5,89.5 C 203.706,100.815 203.373,112.148 203.5,123.5C 202.834,119.012 202.501,114.346 202.5,109.5C 202.308,102.596 202.975,95.9295 204.5,89.5 Z"/></g>
<g><path style="opacity:0.259" fill="#2f2d2d" d="M 354.5,275.5 C 355.222,275.918 355.722,276.584 356,277.5C 358.476,289.913 358.976,302.247 357.5,314.5C 357.861,301.38 356.861,288.38 354.5,275.5 Z"/></g>
</svg>
