<svg id="svg" xmlns="http://www.w3.org/2000/svg" xmlns:xlink="http://www.w3.org/1999/xlink" viewBox="0, 0, 400,400" version="1.1"><g id="svgg"><path id="path0" d="M93.333 36.798 C 83.265 41.350,75.420 49.085,70.646 59.167 L 66.699 67.500 66.720 200.000 C 66.739 329.660,66.813 332.661,70.131 340.000 C 74.683 350.068,82.418 357.914,92.500 362.688 L 100.833 366.634 200.000 366.634 L 299.167 366.634 307.500 362.688 C 317.582 357.914,325.317 350.068,329.869 340.000 C 333.187 332.661,333.261 329.660,333.280 200.000 L 333.301 67.500 329.354 59.167 C 324.580 49.085,316.735 41.350,306.667 36.798 C 294.974 31.511,105.026 31.511,93.333 36.798 M297.136 62.107 C 308.135 69.317,307.500 60.866,307.500 200.000 C 307.500 339.137,308.135 330.685,297.133 337.893 C 290.228 342.418,109.772 342.418,102.867 337.893 C 91.933 330.730,92.553 338.152,91.987 207.575 C 91.354 61.697,91.080 64.170,108.357 60.006 C 120.998 56.960,292.190 58.864,297.136 62.107 M111.092 78.048 C 103.340 86.613,109.457 100.000,121.123 100.000 C 132.399 100.000,138.499 85.192,130.285 77.758 C 126.079 73.951,114.643 74.124,111.092 78.048 M269.425 78.048 C 261.673 86.613,267.791 100.000,279.456 100.000 C 290.732 100.000,296.833 85.192,288.619 77.758 C 284.412 73.951,272.976 74.124,269.425 78.048 M174.663 103.218 C 123.998 119.417,100.089 181.418,127.379 225.833 L 131.475 232.500 123.738 240.396 C 111.272 253.116,114.341 267.582,129.416 267.155 C 135.160 266.992,138.204 264.346,174.455 228.002 C 217.266 185.080,218.429 183.278,209.242 174.091 C 200.899 165.747,196.810 167.668,173.207 191.022 C 150.283 213.705,149.955 213.839,145.989 202.201 C 126.606 145.314,197.554 100.887,240.000 143.333 C 276.624 179.957,251.817 238.665,199.409 239.396 L 182.985 239.625 173.978 248.519 C 163.307 259.058,163.375 259.940,175.132 263.629 C 228.868 280.486,283.333 240.067,283.333 183.333 C 283.333 126.345,228.579 85.979,174.663 103.218 M111.092 303.048 C 107.285 307.255,107.457 318.690,111.381 322.242 C 119.947 329.993,133.333 323.876,133.333 312.210 C 133.333 300.934,118.525 294.834,111.092 303.048 M269.425 303.048 C 261.673 311.613,267.791 325.000,279.456 325.000 C 290.732 325.000,296.833 310.192,288.619 302.758 C 284.412 298.951,272.976 299.124,269.425 303.048 " stroke="none" fill-rule="evenodd"></path></g></svg>