<?xml version="1.0" standalone="no"?>
<!DOCTYPE svg PUBLIC "-//W3C//DTD SVG 20010904//EN"
 "http://www.w3.org/TR/2001/REC-SVG-20010904/DTD/svg10.dtd">
<svg version="1.0" xmlns="http://www.w3.org/2000/svg"
 width="512.000000pt" height="512.000000pt" viewBox="0 0 512.000000 512.000000"
 preserveAspectRatio="xMidYMid meet">
<metadata>
Created by potrace 1.16, written by Peter Selinger 2001-2019
</metadata>
<g transform="translate(0.000000,512.000000) scale(0.100000,-0.100000)"
fill="#000000" stroke="none">
<path d="M1190 4689 c-124 -24 -244 -122 -303 -246 l-32 -68 0 -1927 0 -1927
21 -27 c39 -53 70 -69 137 -69 75 0 120 27 148 89 18 40 19 109 19 1913 l0
1873 29 32 29 33 1322 0 1322 0 29 -33 29 -32 0 -1873 c0 -1804 1 -1873 19
-1913 28 -62 73 -89 148 -89 67 0 98 16 137 69 l21 27 0 1927 0 1927 -32 68
c-61 128 -180 222 -312 247 -67 13 -2666 12 -2731 -1z"/>
<path d="M1574 3969 l-29 -30 0 -259 0 -259 29 -30 30 -31 956 0 956 0 30 31
29 30 0 259 0 259 -29 30 -30 31 -956 0 -956 0 -30 -31z"/>
<path d="M1670 2858 c-57 -39 -75 -72 -75 -138 0 -66 18 -99 75 -137 l33 -23
857 0 857 0 33 23 c57 38 75 71 75 137 0 66 -18 99 -75 138 l-33 22 -857 0
-857 0 -33 -22z"/>
<path d="M1670 2218 c-57 -39 -75 -72 -75 -138 0 -66 18 -99 75 -137 l33 -23
639 0 c721 0 688 -3 733 75 33 55 33 115 0 170 -45 78 -12 75 -733 75 l-639 0
-33 -22z"/>
</g>
</svg>
