<svg id="svg" xmlns="http://www.w3.org/2000/svg" xmlns:xlink="http://www.w3.org/1999/xlink" viewBox="0, 0, 400,400" version="1.1"><g id="svgg"><path id="path0" d="M91.069 34.895 C 79.818 38.910,71.164 48.059,67.686 59.616 C 64.470 70.304,64.798 331.122,68.041 341.162 C 70.965 350.216,76.872 357.452,85.462 362.501 L 92.143 366.429 200.000 366.429 L 307.857 366.429 314.538 362.501 C 334.521 350.754,334.286 352.193,334.286 241.567 L 334.286 149.367 276.095 91.112 L 217.904 32.857 157.166 32.920 C 110.174 32.968,95.216 33.415,91.069 34.895 M200.031 98.929 C 200.066 144.022,200.433 146.052,210.330 155.949 C 220.508 166.127,221.822 166.381,266.786 166.848 L 307.143 167.268 307.143 250.528 L 307.143 333.788 303.456 337.251 L 299.770 340.714 200.000 340.714 L 100.230 340.714 96.544 337.251 L 92.857 333.788 92.857 199.878 L 92.857 65.968 97.252 62.270 L 101.648 58.571 150.824 58.571 L 200.000 58.571 200.031 98.929 M264.658 141.135 C 224.157 141.847,225.714 143.285,225.714 105.177 L 225.714 77.881 257.158 109.298 L 288.601 140.714 264.658 141.135 M196.100 199.612 C 188.999 200.903,187.143 206.055,187.143 224.478 L 187.143 241.429 170.193 241.429 C 147.653 241.429,140.995 246.501,146.438 259.528 C 149.209 266.161,152.326 267.143,170.620 267.143 L 187.143 267.143 187.143 284.351 C 187.143 304.771,189.160 308.571,200.000 308.571 C 210.840 308.571,212.857 304.771,212.857 284.351 L 212.857 267.143 229.380 267.143 C 247.674 267.143,250.791 266.161,253.562 259.528 C 259.005 246.501,252.347 241.429,229.807 241.429 L 212.857 241.429 212.857 224.365 C 212.857 202.947,209.012 197.266,196.100 199.612 " stroke="none" fill-rule="evenodd"></path></g></svg>