<svg id="svg" xmlns="http://www.w3.org/2000/svg" xmlns:xlink="http://www.w3.org/1999/xlink" width="400" height="400" viewBox="0, 0, 400,400"><g id="svgg"><path id="path0" d="M88.081 51.893 C 79.727 54.584,68.556 64.350,63.436 73.438 L 58.594 82.031 58.594 200.000 L 58.594 317.969 63.436 326.563 C 75.652 348.245,81.992 350.000,148.112 350.000 L 201.331 350.000 195.978 339.730 C 193.034 334.082,190.625 328.457,190.625 327.230 C 190.625 325.355,183.976 324.994,148.828 324.963 C 102.347 324.921,96.931 324.213,89.981 317.269 L 85.156 312.448 84.663 285.912 L 84.169 259.375 136.655 259.375 L 189.140 259.375 190.761 255.112 C 194.125 246.263,200.452 234.877,206.371 227.020 L 212.500 218.884 212.500 193.036 L 212.500 167.188 264.063 167.188 L 315.625 167.188 315.625 177.058 L 315.625 186.929 324.609 189.742 C 329.551 191.289,335.560 193.562,337.963 194.793 L 342.332 197.030 341.869 139.531 L 341.406 82.031 336.564 73.438 C 331.172 63.867,320.120 54.498,310.997 51.765 C 303.287 49.455,95.280 49.575,88.081 51.893 M187.500 107.813 L 187.500 140.625 135.835 140.625 L 84.169 140.625 84.663 114.088 L 85.156 87.552 90.029 82.683 C 96.900 75.818,100.494 75.339,146.484 75.160 L 187.500 75.000 187.500 107.813 M299.081 76.492 C 302.443 77.272,307.365 80.079,310.019 82.731 L 314.844 87.552 315.337 114.088 L 315.831 140.625 264.165 140.625 L 212.500 140.625 212.500 107.813 L 212.500 75.000 252.734 75.037 C 274.863 75.058,295.719 75.713,299.081 76.492 M187.500 200.000 L 187.500 232.813 135.938 232.813 L 84.375 232.813 84.375 200.000 L 84.375 167.188 135.938 167.188 L 187.500 167.188 187.500 200.000 M267.647 202.397 C 199.462 220.765,176.525 306.458,226.428 356.392 C 278.691 408.687,366.900 382.477,382.032 310.156 C 395.921 243.777,333.240 184.727,267.647 202.397 M297.988 231.250 C 299.316 233.888,299.961 243.144,299.977 259.766 L 300.000 284.375 326.320 284.375 C 355.122 284.375,359.576 285.731,357.038 293.728 C 355.377 298.962,349.930 300.000,324.117 300.000 L 300.000 300.000 300.000 324.117 C 300.000 349.930,298.962 355.377,293.728 357.038 C 285.731 359.576,284.375 355.122,284.375 326.320 L 284.375 300.000 258.941 300.000 C 231.387 300.000,226.563 298.753,226.563 291.630 C 226.563 284.902,228.800 284.375,257.344 284.375 L 284.375 284.375 284.375 257.344 C 284.375 237.884,284.919 229.769,286.317 228.370 C 289.381 225.307,295.792 226.889,297.988 231.250 " stroke="none" fill="#000000" fill-rule="evenodd"></path></g></svg>