<svg id="svg" xmlns="http://www.w3.org/2000/svg" xmlns:xlink="http://www.w3.org/1999/xlink" viewBox="0, 0, 400,400" version="1.1"><g id="svgg"><path id="path0" d="M145.246 60.062 C 138.307 65.520,139.359 78.691,147.064 82.815 C 148.748 83.716,164.294 84.286,187.215 84.286 L 224.619 84.286 223.903 87.500 C 223.509 89.268,221.427 95.214,219.278 100.714 C 217.128 106.214,214.277 113.607,212.941 117.143 C 211.606 120.679,209.434 126.061,208.114 129.103 C 206.794 132.145,205.714 135.026,205.714 135.504 C 205.714 136.611,200.432 150.187,196.739 158.571 C 195.181 162.107,193.381 166.607,192.739 168.571 C 192.097 170.536,189.858 176.643,187.764 182.143 C 185.671 187.643,182.861 195.036,181.521 198.571 C 180.181 202.107,178.005 207.489,176.685 210.532 C 175.365 213.574,174.286 216.610,174.286 217.279 C 174.286 217.948,173.060 221.244,171.562 224.605 C 168.896 230.583,164.934 240.665,158.495 257.857 C 156.729 262.571,154.096 269.154,152.642 272.484 C 151.189 275.815,149.994 279.029,149.987 279.627 C 149.980 280.225,147.087 287.781,143.558 296.419 C 140.030 305.056,137.143 312.931,137.143 313.919 C 137.143 315.312,129.275 315.714,102.049 315.714 C 59.916 315.714,57.288 316.523,57.188 329.516 C 57.151 334.429,57.905 336.102,61.538 339.159 L 65.934 342.857 158.746 342.857 L 251.558 342.857 255.007 339.409 C 259.511 334.904,260.753 329.553,258.536 324.201 C 255.037 315.754,254.804 315.714,208.377 315.714 L 165.961 315.714 168.856 308.214 C 170.448 304.089,173.225 296.857,175.025 292.143 C 176.826 287.429,179.692 280.036,181.393 275.714 C 183.094 271.393,185.648 264.643,187.069 260.714 C 191.567 248.275,200.061 226.656,202.939 220.319 C 204.465 216.959,205.714 213.542,205.714 212.727 C 205.714 211.912,207.321 207.732,209.286 203.438 C 211.250 199.143,212.857 195.088,212.857 194.425 C 212.857 193.762,214.057 190.406,215.525 186.967 C 216.992 183.528,221.233 172.679,224.949 162.857 C 228.666 153.036,232.892 142.107,234.340 138.571 C 235.788 135.036,239.959 124.429,243.609 115.000 C 247.259 105.571,251.429 94.964,252.876 91.429 L 255.506 85.000 286.682 84.286 C 324.587 83.417,325.714 82.999,325.714 69.815 C 325.714 65.523,324.798 63.300,321.934 60.646 L 318.154 57.143 233.555 57.143 C 150.522 57.143,148.888 57.197,145.246 60.062 " stroke="none" fill-rule="evenodd"></path></g></svg>