<svg id="svg" xmlns="http://www.w3.org/2000/svg" xmlns:xlink="http://www.w3.org/1999/xlink" width="400" height="400" viewBox="0, 0, 400,400"><g id="svgg"><path id="path0" d="M68.834 46.043 C 52.507 51.832,50.000 54.062,50.000 62.799 C 50.000 72.298,54.438 75.598,65.824 74.566 L 75.000 73.734 75.000 100.816 L 75.000 127.898 79.117 131.137 C 81.381 132.918,85.154 134.375,87.500 134.375 C 89.846 134.375,93.619 132.918,95.883 131.137 L 100.000 127.898 100.000 87.500 L 100.000 47.102 95.883 43.863 C 90.377 39.532,86.258 39.864,68.834 46.043 M169.460 86.648 C 163.186 92.922,165.271 104.430,173.285 107.749 C 176.140 108.932,201.924 109.326,256.815 109.027 L 336.215 108.594 339.201 104.905 C 343.460 99.644,343.075 91.371,338.352 86.648 L 334.517 82.813 253.906 82.813 L 173.295 82.813 169.460 86.648 M66.890 154.224 C 46.027 166.664,43.094 192.188,62.526 192.188 C 68.404 192.188,71.601 189.701,77.091 180.859 C 81.405 173.913,90.625 175.803,90.625 183.634 C 90.625 187.869,86.001 192.073,74.219 198.552 C 56.008 208.565,50.022 215.906,50.008 228.243 C 49.993 241.480,51.907 242.188,87.719 242.188 L 118.205 242.188 121.915 238.239 C 131.484 228.053,123.914 215.638,108.116 215.608 L 99.219 215.590 104.492 211.435 C 136.910 185.892,102.242 133.144,66.890 154.224 M172.444 192.430 C 165.142 196.014,163.517 207.409,169.460 213.352 L 173.295 217.188 253.906 217.188 L 334.517 217.188 338.352 213.352 C 343.075 208.629,343.460 200.356,339.201 195.095 L 336.215 191.406 255.998 191.099 C 202.605 190.895,174.665 191.340,172.444 192.430 M70.819 267.874 C 52.098 273.728,43.890 286.937,52.658 297.101 C 56.780 301.880,62.646 301.728,72.850 296.579 C 79.739 293.102,83.568 292.038,86.522 292.780 C 92.655 294.319,91.554 298.067,84.402 299.993 C 69.524 303.999,71.307 321.234,87.074 325.817 C 95.367 328.228,95.810 328.585,93.030 330.617 C 88.605 333.853,84.720 333.343,73.553 328.060 C 48.357 316.140,37.550 340.411,62.502 352.879 C 96.791 370.014,133.135 346.209,118.082 316.475 C 115.155 310.693,114.620 308.113,115.738 305.171 C 124.963 280.907,98.749 259.141,70.819 267.874 M168.863 304.117 C 167.082 306.381,165.625 310.154,165.625 312.500 C 165.625 314.846,167.082 318.619,168.863 320.883 L 172.102 325.000 253.747 325.000 L 335.393 325.000 338.790 321.384 C 343.446 316.428,343.342 307.879,338.571 303.397 L 334.955 300.000 253.528 300.000 L 172.102 300.000 168.863 304.117 " stroke="none" fill="#000000" fill-rule="evenodd"></path></g></svg>