<svg id="svg" xmlns="http://www.w3.org/2000/svg" xmlns:xlink="http://www.w3.org/1999/xlink" viewBox="0, 0, 400,400" version="1.1"><g id="svgg"><path id="path0" d="M175.714 53.118 C 167.389 57.153,157.028 67.549,153.101 75.808 L 150.000 82.331 150.000 196.192 L 150.000 310.053 153.627 316.989 C 158.574 326.450,168.379 335.256,178.583 339.402 L 187.086 342.857 258.589 342.857 L 330.092 342.857 341.472 338.469 C 355.149 333.194,366.571 323.501,372.039 312.528 L 375.714 305.153 375.714 228.618 L 375.714 152.082 354.057 129.255 C 342.146 116.701,320.188 93.732,305.263 78.214 L 278.127 50.000 230.135 50.001 C 183.734 50.002,181.930 50.106,175.714 53.118 M115.703 67.749 C 101.138 71.772,89.479 83.108,84.415 98.169 C 81.511 106.807,81.429 109.510,81.459 196.026 L 81.489 285.000 84.857 294.542 C 91.934 314.591,108.417 325.714,131.050 325.714 C 145.332 325.714,146.100 325.195,141.344 318.763 C 139.726 316.574,137.598 311.618,136.615 307.749 C 134.902 301.008,134.554 300.646,128.266 299.073 C 109.347 294.342,110.000 298.041,110.000 195.594 C 110.000 93.678,109.379 97.261,127.674 93.561 C 134.764 92.126,134.795 92.096,136.426 84.852 C 137.326 80.855,139.463 75.617,141.174 73.214 C 142.886 70.811,144.286 68.140,144.286 67.279 C 144.286 65.134,123.962 65.467,115.703 67.749 M257.143 104.873 C 257.143 139.148,258.602 145.121,269.831 156.820 C 281.976 169.474,286.110 170.646,320.357 171.152 L 350.000 171.589 350.000 231.330 C 350.000 299.335,350.119 298.128,342.693 305.335 C 332.352 315.372,331.473 315.479,258.957 315.604 C 185.183 315.730,185.525 315.775,179.246 305.060 L 175.714 299.035 175.714 195.783 L 175.714 92.532 178.820 87.007 C 184.589 76.742,188.815 75.717,225.357 75.715 L 257.143 75.714 257.143 104.873 M47.143 84.620 C 36.159 88.250,21.476 101.698,18.349 110.993 C 15.410 119.728,14.885 265.247,17.752 276.256 C 22.633 294.995,38.962 307.393,61.524 309.490 C 75.841 310.820,76.272 310.437,72.072 300.100 C 70.147 295.362,68.571 289.223,68.571 286.457 C 68.571 281.681,68.325 281.429,63.664 281.429 C 42.910 281.429,42.564 279.901,43.134 190.656 L 43.571 122.026 47.143 117.491 C 50.538 113.181,56.428 110.488,64.273 109.661 C 67.316 109.340,67.969 108.355,68.777 102.857 C 69.298 99.321,71.023 93.434,72.612 89.774 C 74.200 86.114,75.120 82.739,74.655 82.274 C 72.700 80.319,55.798 81.760,47.143 84.620 M322.629 137.143 L 328.601 143.571 317.515 144.016 C 289.642 145.133,284.286 139.965,284.286 111.951 L 284.286 97.186 300.471 113.950 C 309.373 123.171,319.344 133.607,322.629 137.143 " stroke="none" fill-rule="evenodd"></path></g></svg>