<svg id="svg" xmlns="http://www.w3.org/2000/svg" xmlns:xlink="http://www.w3.org/1999/xlink" viewBox="0, 0, 400,400" version="1.1"><g id="svgg"><path id="path0" d="M54.918 60.283 C 49.411 62.100,43.979 65.715,38.365 71.300 C 23.865 85.726,24.431 80.112,24.954 204.286 L 25.410 312.368 30.723 323.160 C 54.644 371.740,127.812 369.645,145.965 319.859 C 150.387 307.730,149.606 307.709,154.110 320.082 C 167.409 356.615,218.603 370.780,250.210 346.672 L 255.519 342.623 315.243 342.623 C 394.925 342.623,392.172 344.904,371.311 296.170 L 359.016 267.446 359.016 239.805 C 359.016 185.895,341.304 158.493,301.381 150.638 L 291.803 148.754 291.803 127.656 C 291.803 99.673,292.103 100.000,266.457 100.000 C 240.863 100.000,240.984 99.867,240.984 128.178 L 240.984 149.180 200.000 149.180 L 159.016 149.180 159.016 116.393 L 159.016 83.607 168.033 83.607 C 183.122 83.607,190.160 69.327,179.287 60.775 C 173.324 56.084,68.900 55.671,54.918 60.283 M236.811 61.401 C 231.486 66.725,231.383 75.158,236.581 80.042 C 241.890 85.029,290.682 85.548,296.692 80.681 C 302.246 76.184,301.965 66.275,296.141 61.266 C 289.042 55.159,242.947 55.264,236.811 61.401 M132.732 120.082 L 132.676 156.557 121.093 165.164 L 109.509 173.770 80.080 173.770 L 50.651 173.770 51.145 135.362 C 51.829 82.178,50.210 83.849,101.230 83.699 L 132.787 83.607 132.732 120.082 M299.630 177.911 C 322.992 184.849,331.710 199.682,332.531 233.894 L 333.094 257.377 298.275 257.377 L 263.455 257.377 255.446 249.885 C 223.313 219.829,168.658 231.840,153.945 272.191 C 151.984 277.568,150.209 281.967,150.000 281.967 C 149.791 281.967,148.016 277.568,146.055 272.191 C 134.255 239.829,92.140 223.223,61.005 238.655 L 50.820 243.703 50.820 221.852 L 50.820 200.000 81.675 200.000 C 117.879 200.000,122.319 198.948,137.318 186.812 C 142.886 182.306,149.125 177.944,151.180 177.118 C 158.112 174.335,289.960 175.039,299.630 177.911 M105.795 264.701 C 109.799 267.047,114.940 271.708,117.221 275.057 L 121.367 281.148 101.522 281.967 C 79.846 282.863,73.770 285.913,73.770 295.902 C 73.770 305.897,79.841 308.941,101.567 309.836 L 121.456 310.656 116.602 317.244 C 103.344 335.242,76.132 337.116,61.167 321.061 C 32.764 290.589,69.913 243.673,105.795 264.701 M227.165 262.919 C 262.985 279.599,251.749 331.693,212.295 331.861 C 200.273 331.912,190.598 327.019,183.398 317.244 L 178.544 310.656 198.467 309.794 C 220.226 308.853,226.230 305.849,226.230 295.902 C 226.230 285.913,220.154 282.863,198.478 281.967 L 178.633 281.148 182.704 275.168 C 192.644 260.568,211.161 255.467,227.165 262.919 M338.143 286.475 C 338.594 288.053,341.603 295.430,344.829 302.869 L 350.695 316.393 311.528 316.393 L 272.360 316.393 273.885 311.076 C 274.724 308.152,275.410 300.775,275.410 294.683 L 275.410 283.607 306.366 283.607 C 334.443 283.607,337.399 283.873,338.143 286.475 " stroke="none" fill-rule="evenodd"></path></g></svg>