<svg id="svg" xmlns="http://www.w3.org/2000/svg" xmlns:xlink="http://www.w3.org/1999/xlink" viewBox="0, 0, 400,400" version="1.1"><g id="svgg"><path id="path0" d="M165.726 60.257 C 158.268 61.849,149.776 64.371,146.854 65.861 C 143.933 67.352,140.886 68.571,140.085 68.571 C 137.153 68.571,122.407 79.017,115.772 85.793 C 95.847 106.141,93.757 141.190,111.110 163.959 L 114.672 168.633 140.910 168.245 C 170.790 167.803,171.764 167.272,155.432 160.322 C 128.681 148.939,120.537 134.519,129.801 114.939 C 145.809 81.100,213.450 74.233,255.714 102.156 C 267.349 109.842,270.028 110.624,276.078 108.096 C 287.283 103.414,286.874 90.201,275.259 81.620 C 246.784 60.584,203.628 52.167,165.726 60.257 M72.623 191.813 C 62.807 195.706,63.578 211.730,73.835 216.976 C 76.026 218.096,101.456 218.571,159.260 218.571 L 241.566 218.571 249.127 223.408 C 276.887 241.166,281.433 266.378,261.011 289.328 C 254.425 296.729,242.826 305.714,239.857 305.714 C 239.072 305.714,236.372 306.782,233.858 308.087 C 211.375 319.755,165.642 315.876,141.299 300.235 C 130.220 293.116,125.697 289.537,118.620 282.286 C 107.337 270.726,96.073 270.780,91.511 282.416 C 88.699 289.587,91.523 295.558,102.566 305.788 C 163.886 362.598,264.985 352.476,295.938 286.429 C 303.442 270.417,299.431 231.277,289.436 222.982 C 284.944 219.254,287.368 218.571,305.094 218.571 C 315.501 218.571,324.356 217.901,326.165 216.976 C 336.675 211.601,337.252 197.371,327.171 192.158 C 321.975 189.471,79.359 189.142,72.623 191.813 " stroke="none" fill-rule="evenodd"></path></g></svg>