<svg id="svg" xmlns="http://www.w3.org/2000/svg" xmlns:xlink="http://www.w3.org/1999/xlink" viewBox="0, 0, 400,400" version="1.1"><g id="svgg"><path id="path0" d="M144.286 50.000 C 78.453 50.878,73.026 52.646,61.640 76.931 L 57.857 85.000 57.857 200.000 L 57.857 315.000 61.687 323.172 C 66.715 333.899,76.514 343.311,86.575 347.075 C 98.959 351.708,301.043 351.708,313.427 347.074 C 323.485 343.311,333.285 333.898,338.313 323.172 L 342.143 315.000 342.143 200.000 L 342.143 85.000 338.313 76.828 C 325.158 48.761,317.425 47.691,144.286 50.000 M187.143 108.571 L 187.143 141.429 135.714 141.429 L 84.286 141.429 84.286 115.926 C 84.286 74.990,83.203 75.720,143.929 75.717 L 187.143 75.714 187.143 108.571 M304.257 78.217 C 314.565 83.396,315.714 87.177,315.714 115.926 L 315.714 141.429 264.286 141.429 L 212.857 141.429 212.857 108.571 L 212.857 75.714 256.071 75.717 C 294.362 75.718,299.852 76.003,304.257 78.217 M187.143 200.000 L 187.143 232.857 135.714 232.857 L 84.286 232.857 84.286 200.000 L 84.286 167.143 135.714 167.143 L 187.143 167.143 187.143 200.000 M315.714 200.000 L 315.714 232.857 264.286 232.857 L 212.857 232.857 212.857 200.000 L 212.857 167.143 264.286 167.143 L 315.714 167.143 315.714 200.000 M187.143 291.429 L 187.143 324.286 143.929 324.283 C 83.203 324.280,84.286 325.010,84.286 284.074 L 84.286 258.571 135.714 258.571 L 187.143 258.571 187.143 291.429 M315.714 284.074 C 315.714 325.010,316.797 324.280,256.071 324.283 L 212.857 324.286 212.857 291.429 L 212.857 258.571 264.286 258.571 L 315.714 258.571 315.714 284.074 " stroke="none" fill-rule="evenodd"></path></g></svg>