<svg id="svg" xmlns="http://www.w3.org/2000/svg" xmlns:xlink="http://www.w3.org/1999/xlink" viewBox="0, 0, 400,400" version="1.1"><g id="svgg"><path id="path0" d="M189.562 45.139 C 188.030 47.049,165.311 99.112,139.077 160.835 C 86.139 285.385,84.809 290.278,103.896 290.278 L 114.737 290.278 126.594 262.500 L 138.451 234.722 200.000 234.722 L 261.549 234.722 273.406 262.500 L 285.263 290.278 296.104 290.278 C 315.306 290.278,313.958 285.307,260.957 160.711 C 208.317 36.964,210.726 41.667,200.000 41.667 C 195.791 41.667,191.093 43.229,189.562 45.139 M225.736 150.694 L 249.490 206.944 224.745 207.743 C 211.135 208.182,188.876 208.182,175.280 207.743 L 150.560 206.944 174.332 150.694 C 187.407 119.757,198.977 94.444,200.043 94.444 C 201.109 94.444,212.671 119.757,225.736 150.694 M83.605 331.250 C 76.943 349.144,73.367 348.611,200.000 348.611 C 326.633 348.611,323.057 349.144,316.395 331.250 L 314.068 325.000 200.000 325.000 L 85.932 325.000 83.605 331.250 " stroke="none" fill-rule="evenodd"></path></g></svg>