<svg id="svg" xmlns="http://www.w3.org/2000/svg" xmlns:xlink="http://www.w3.org/1999/xlink" viewBox="0, 0, 400,400" version="1.1"><g id="svgg"><path id="path0" d="M102.166 53.791 C 80.209 63.228,65.189 80.460,59.399 102.857 C 55.204 119.084,56.623 289.100,61.044 300.000 C 67.438 315.762,83.035 328.968,99.884 332.886 C 108.077 334.791,108.073 334.510,99.969 340.000 C 98.229 341.179,94.316 343.911,91.272 346.071 C 88.229 348.232,85.190 350.000,84.519 350.000 C 83.849 350.000,82.136 351.286,80.714 352.857 C 79.292 354.429,77.425 355.736,76.564 355.762 C 65.590 356.095,62.169 378.053,72.368 382.700 C 80.102 386.224,82.900 384.890,121.510 359.286 L 159.208 334.286 199.961 334.293 C 236.339 334.300,241.115 334.568,244.451 336.793 C 246.506 338.164,251.006 341.143,254.451 343.414 C 257.896 345.684,270.838 354.363,283.212 362.700 C 295.585 371.036,308.121 379.293,311.069 381.048 C 322.856 388.065,334.286 382.750,334.286 370.251 C 334.286 363.869,330.653 360.012,315.867 350.696 C 314.605 349.901,308.776 346.058,302.916 342.156 L 292.260 335.063 299.344 333.221 C 319.517 327.978,332.564 316.208,339.790 296.732 C 344.527 283.965,344.584 115.936,339.856 100.508 C 333.021 78.199,318.231 62.269,295.881 53.141 C 288.238 50.019,287.645 50.000,199.452 50.059 L 110.714 50.117 102.166 53.791 M288.892 80.444 C 312.080 91.831,315.714 102.497,315.714 159.163 L 315.714 200.000 200.000 200.000 L 84.286 200.000 84.308 158.929 C 84.333 112.264,85.253 105.603,93.089 95.341 C 108.271 75.458,106.946 75.691,202.143 76.095 L 280.714 76.429 288.892 80.444 M160.249 103.306 C 155.823 108.017,156.014 116.936,160.646 121.934 L 164.149 125.714 199.665 125.714 L 235.180 125.714 239.018 121.708 C 243.800 116.717,244.168 109.194,239.896 103.764 L 236.935 100.000 200.145 100.000 C 163.536 100.000,163.340 100.016,160.249 103.306 M315.714 253.317 C 315.714 288.425,314.140 293.888,301.429 302.888 L 296.429 306.429 200.000 306.429 L 103.571 306.429 98.270 302.763 C 85.775 294.125,84.304 288.908,84.294 253.214 L 84.286 225.714 200.000 225.714 L 315.714 225.714 315.714 253.317 M121.610 252.994 C 109.623 264.162,116.870 284.286,132.880 284.286 C 148.098 284.286,156.600 264.903,146.161 254.007 C 141.073 248.696,126.854 248.109,121.610 252.994 M253.839 254.007 C 248.712 259.358,248.230 273.275,252.994 278.390 C 266.753 293.158,290.134 278.424,282.945 259.516 C 278.985 249.101,261.677 245.825,253.839 254.007 " stroke="none" fill-rule="evenodd"></path></g></svg>