<svg id="svg" xmlns="http://www.w3.org/2000/svg" xmlns:xlink="http://www.w3.org/1999/xlink" viewBox="0, 0, 400,400" version="1.1"><g id="svgg"><path id="path0" d="M79.661 42.236 C 74.006 45.305,74.124 43.109,74.646 135.714 L 75.126 220.714 78.833 231.429 C 88.578 259.593,104.767 281.979,125.000 295.266 C 128.143 297.330,132.396 300.159,134.452 301.553 C 164.487 321.926,233.079 322.179,255.827 302.001 C 257.067 300.900,258.616 300.000,259.268 300.000 C 265.268 300.000,300.000 265.268,300.000 259.268 C 300.000 258.616,300.900 257.067,302.001 255.827 C 304.955 252.496,311.381 236.518,314.686 224.286 C 318.612 209.757,320.294 56.888,316.625 48.107 C 312.310 37.779,296.275 37.747,291.967 48.057 C 290.380 51.855,290.000 67.480,289.998 128.883 C 289.996 220.237,290.063 219.717,274.731 247.782 C 271.754 253.233,253.233 271.754,247.782 274.731 C 193.874 304.181,138.420 289.169,111.404 237.811 C 101.197 218.407,101.040 216.824,100.383 126.701 L 99.791 45.545 95.253 42.778 C 89.874 39.499,85.018 39.330,79.661 42.236 M80.407 342.109 C 72.101 345.720,71.764 359.877,79.854 365.311 L 84.708 368.571 199.568 368.571 C 299.221 368.571,314.980 368.286,318.600 366.414 C 328.558 361.264,328.767 346.196,318.938 342.090 C 311.641 339.041,87.421 339.059,80.407 342.109 " stroke="none" fill-rule="evenodd"></path></g></svg>