<svg id="svg" xmlns="http://www.w3.org/2000/svg" xmlns:xlink="http://www.w3.org/1999/xlink" viewBox="0, 0, 400,400" version="1.1"><g id="svgg"><path id="path0" d="M53.106 44.735 C 50.362 47.656,50.000 49.641,50.000 61.761 C 50.000 86.003,44.372 84.286,123.809 84.286 L 187.761 84.286 160.309 111.869 C 129.585 142.741,127.607 146.308,136.364 155.065 C 144.337 163.038,149.608 160.825,169.515 141.145 L 187.143 123.718 187.143 200.000 L 187.143 276.282 169.515 258.855 C 149.608 239.175,144.337 236.962,136.364 244.935 C 127.664 253.634,129.603 257.131,160.277 288.063 L 187.698 315.714 123.778 315.714 C 44.317 315.714,50.000 313.964,50.000 338.439 C 50.000 351.142,50.289 352.631,53.306 355.465 C 61.534 363.195,75.714 357.069,75.714 345.785 L 75.714 342.857 200.000 342.857 L 324.286 342.857 324.286 345.785 C 324.286 357.202,339.199 363.455,346.894 355.265 C 349.638 352.344,350.000 350.359,350.000 338.239 C 350.000 313.997,355.628 315.714,276.191 315.714 L 212.239 315.714 239.691 288.131 C 270.415 257.259,272.393 253.692,263.636 244.935 C 255.663 236.962,250.392 239.175,230.485 258.855 L 212.857 276.282 212.857 200.000 L 212.857 123.718 230.485 141.145 C 250.392 160.825,255.663 163.038,263.636 155.065 C 272.393 146.308,270.415 142.741,239.691 111.869 L 212.239 84.286 276.191 84.286 C 355.688 84.286,350.000 86.037,350.000 61.561 C 350.000 48.858,349.711 47.369,346.694 44.535 C 338.466 36.805,324.286 42.931,324.286 54.215 L 324.286 57.143 200.000 57.143 L 75.714 57.143 75.714 54.215 C 75.714 42.798,60.801 36.545,53.106 44.735 " stroke="none" fill-rule="evenodd"></path></g></svg>